<svg xmlns="http://www.w3.org/2000/svg" version="1.1" xmlns:xlink="http://www.w3.org/1999/xlink" xmlns:svgjs="http://svgjs.com/svgjs" width="1440" height="560" preserveAspectRatio="none" viewBox="0 0 1440 560">
<g mask="url(&quot;#SvgjsMask1035&quot;)" fill="none">
    <rect width="1440" height="560" x="0" y="0" fill="rgba(40, 94, 97, 1)"></rect>
    <path d="M0,371.063C67.492,360.24,114.973,305.09,174.653,271.765C239.346,235.641,334.311,234.131,365.551,166.942C396.765,99.809,342.098,25.036,322.576,-46.379C305.63,-108.369,299.333,-174.375,258.649,-224.121C217.359,-274.609,157.539,-305.051,95.24,-324.358C32.257,-343.877,-37.111,-359.34,-98.288,-334.739C-157.845,-310.789,-185.358,-245.489,-225.486,-195.385C-263.869,-147.461,-319.869,-108.022,-328.547,-47.238C-337.223,13.532,-288.597,64.96,-271.054,123.786C-249.875,194.804,-269.538,284.272,-214.789,334.219C-160.014,384.189,-73.209,382.803,0,371.063" fill="#1a3d3f"></path>
    <path d="M1440 964.437C1522.46 966.419 1601.7640000000001 958.702 1680.563 934.323 1783.516 902.471 1926.261 900.4839999999999 1967.942 801.1030000000001 2010.001 700.822 1879.179 606.716 1863.07 499.172 1847.113 392.63800000000003 1947.039 263.169 1875.326 182.78699999999998 1803.27 102.01999999999998 1662.171 187.54199999999997 1558.201 157.44600000000003 1454.878 127.53699999999998 1383.166-14.83299999999997 1278.5140000000001 10.028999999999996 1175.343 34.53899999999999 1168.4560000000001 184.42700000000002 1100.8229999999999 266.102 1035.346 345.173 918.131 382.378 888.731 480.74 858.494 581.901 883.826 700.126 945.4739999999999 785.843 1004.088 867.342 1112.339 888.8330000000001 1206.758 922.932 1282.567 950.31 1359.422 962.5 1440 964.437" fill="#367f83"></path>
</g>
<defs>
    <mask id="SvgjsMask1035">
        <rect width="1440" height="560" fill="#ffffff"></rect>
    </mask>
</defs>
</svg>
